<?xml version="1.0" encoding="utf-8"?>
<!-- Generator: Adobe Illustrator 20.1.0, SVG Export Plug-In . SVG Version: 6.00 Build 0)  -->
<svg version="1.1" id="Слой_1" xmlns="http://www.w3.org/2000/svg" xmlns:xlink="http://www.w3.org/1999/xlink" x="0px" y="0px"
	 viewBox="0 0 634.7 126.5" style="enable-background:new 0 0 634.7 126.5;" xml:space="preserve">
<style type="text/css">
	.st0{fill:#FD0028;}
</style>
<g>
	<g>
		<polygon class="st0" points="113.4,37.5 98.7,37.5 98.7,95.1 138.5,95.1 138.5,82.7 113.4,82.7 		"/>
		<path class="st0" d="M168.5,37.5h-19.6v57.7h20.9c12.1,0,19.5-6.1,22.1-8.7c5.1-5.1,7.5-11.5,7.5-20c0-8.8-2.7-15.9-8-21
			C185.9,40.1,178.4,37.5,168.5,37.5 M179.7,78.5c-3.8,3.7-8.9,4.2-12.8,4.2h-3.2V49.9h3.8c4,0,8.6,0.4,12.1,3.7
			c2.9,2.7,4.6,7.4,4.6,12.8C184.2,72.8,181.7,76.5,179.7,78.5"/>
		<path class="st0" d="M259.9,45L259.9,45c-5.5-5.4-13.6-8.5-22.1-8.5c-8.5,0-16.6,3.1-22.1,8.5c-5.6,5.4-8.8,13.2-8.8,21.4
			c0,8.1,3.2,15.8,8.8,21.3c5.5,5.4,13.6,8.5,22.1,8.5c8.5,0,16.6-3.1,22.1-8.5c5.6-5.5,8.8-13.2,8.8-21.3
			C268.8,58.2,265.6,50.4,259.9,45 M249.3,77.6c-2.9,3-6.8,4.5-11.4,4.5c-4.5,0-8.5-1.6-11.5-4.6c-2.1-2-4.5-5.5-4.5-10.8
			c0-4.4,1.7-8.5,4.5-11.4c2.9-2.9,7.1-4.6,11.5-4.6c4.2,0,8.4,1.7,11.4,4.6c2.9,2.9,4.6,6.9,4.6,11.1
			C253.9,70.5,252.2,74.6,249.3,77.6"/>
		<path class="st0" d="M509.1,45L509.1,45c-5.5-5.4-13.6-8.5-22.1-8.5c-8.5,0-16.6,3.1-22.1,8.5c-5.6,5.4-8.8,13.2-8.8,21.4
			c0,8.1,3.2,15.8,8.8,21.3c5.5,5.4,13.6,8.5,22.1,8.5c8.5,0,16.6-3.1,22.1-8.5c5.6-5.5,8.8-13.2,8.8-21.3
			C517.9,58.2,514.7,50.4,509.1,45 M498.4,77.6c-2.9,3-6.8,4.5-11.4,4.5c-4.5,0-8.5-1.6-11.5-4.6c-2.1-2-4.5-5.5-4.5-10.8
			c0-4.4,1.6-8.5,4.5-11.4c2.9-2.9,7.1-4.6,11.5-4.6c4.2,0,8.4,1.7,11.4,4.6c2.9,2.9,4.6,6.9,4.6,11.1
			C503,70.5,501.3,74.6,498.4,77.6"/>
		<path class="st0" d="M441.6,86.4c5.1-5.1,7.5-11.5,7.5-20c0-8.8-2.7-15.9-8-21c-5.5-5.4-13.1-8-22.9-8h-19.6v57.7h20.9
			C431.6,95.1,439,89,441.6,86.4 M413.3,82.7V49.9h3.8c4,0,8.6,0.4,12.1,3.7c2.9,2.7,4.6,7.4,4.6,12.8c0,6.4-2.4,10.1-4.5,12
			c-3.8,3.7-8.9,4.2-12.8,4.2H413.3z"/>
		<path class="st0" d="M353.3,37.5l-22.1,57.7h15.6l3.9-9.7l0.5-1.4c3.3,0.9,6.7,1.4,10.2,1.4s6.9-0.5,10.1-1.4l0.5,1.4l3.6,9.7
			h15.7l-21.7-57.7H353.3z M367.4,72.7c-2,0.5-4.1,0.8-6.2,0.8c-2.1,0-4.1-0.2-6.1-0.7l6.1-17.9L367.4,72.7z"/>
		<path class="st0" d="M314.5,71.9c2.6-1.5,4.7-3.9,6.1-6.8c1.3-2.6,2-5.7,2-8.9c0-2.3-0.3-4.4-0.9-6.4c-1.5-5.2-5-9.2-9.9-11.1
			c-2.7-1-5.7-1.4-11.5-1.4h-22.7v12.5v15.2v30h14.2V76.8c0,0,4,0.4,5.5,0.4c1.3,0,2.6-0.1,3.9-0.2l10.5,18.2h15.8l-13.8-22.6
			C313.8,72.3,314.2,72.1,314.5,71.9 M308.1,57.3c0,3-1.3,5.2-3.3,6.4c-2.4,1.4-5,1.6-7.6,1.6c-1.9,0-3.8-0.3-5.5-0.8V49.9h6.4
			c0.7,0,4.4,0,6.3,0.8C306.7,51.7,308.1,53.6,308.1,57.3C308.1,57.2,308.1,57.3,308.1,57.3"/>
		<polygon class="st0" points="45,95.1 84.7,95.1 84.7,82.7 59.7,82.7 59.7,72.4 83.7,72.4 83.7,59.9 59.7,59.9 59.7,49.9 
			84.7,49.9 84.7,37.5 45,37.5 		"/>
	</g>
	<g>
		<g>
			<rect x="580.6" y="20.1" class="st0" width="9.7" height="16.6"/>
			<rect x="580.6" y="36.6" class="st0" width="26.1" height="9.7"/>
		</g>
		<g>
			<rect x="580.6" y="36.6" class="st0" width="9.7" height="58.4"/>
			<rect x="532" y="36.6" class="st0" width="58.4" height="9.7"/>
			<rect x="532" y="85.3" class="st0" width="58.4" height="9.7"/>
			<rect x="532" y="36.6" class="st0" width="9.7" height="58.4"/>
			<g>
				<path class="st0" d="M570.5,58.2h-4.3l-5.8,15.2h4.1l1-2.6l0.1-0.4c0.9,0.2,1.8,0.4,2.7,0.4c0.9,0,1.8-0.1,2.7-0.4l0.1,0.4
					l0.9,2.6h4.2L570.5,58.2z M568.4,67.7c-0.5,0-1.1-0.1-1.6-0.2l1.6-4.7l1.6,4.7C569.5,67.6,568.9,67.7,568.4,67.7"/>
				<path class="st0" d="M555.1,58.2v8.6l0,0.8c0,1.3-1,2.4-2.3,2.5c-0.1,0-0.1,0-0.2,0c-0.1,0-0.1,0-0.2,0
					c-1.3-0.1-2.3-1.2-2.3-2.5l-0.1-0.9v-8.4h-3.9v8.4l0,0.3c0,2.7,1.4,4.4,2,5c1.1,1.2,2.6,1.7,4.5,1.7l0,0l0,0
					c1.9,0,3.3-0.5,4.5-1.7c0.6-0.6,2-2.3,2-5l0-0.2v-8.5L555.1,58.2z"/>
			</g>
		</g>
	</g>
</g>
</svg>
