<?xml version="1.0" encoding="utf-8"?>
<!-- Generator: Adobe Illustrator 19.2.1, SVG Export Plug-In . SVG Version: 6.00 Build 0)  -->
<svg version="1.1" id="layer" xmlns="http://www.w3.org/2000/svg" xmlns:xlink="http://www.w3.org/1999/xlink" x="0px" y="0px"
	 viewBox="0 0 652 652" style="enable-background:new 0 0 652 652;" xml:space="preserve">
<g>
	<path d="M298.1,369.9h21.6v-44.6c0-23.6-15-36.1-33.1-36.1c-12,0-21,5.2-27.5,12.4h-2.9c-4.9-6.4-13.4-12.4-26.1-12.4
		c-11.5,0-20.6,5.1-25.4,10.9h-2.9v-8.7h-20.1v78.4h21.4v-41c0-14,4.1-18.8,18.5-18.8c14.4,0,18.3,4.8,18.3,18.8v41h21.6v-41
		c0-14,4-18.8,18.3-18.8c14.4,0,18.3,4.8,18.3,18.8L298.1,369.9L298.1,369.9z M95.8,358.7c-3.8-2.8-5.6-6.9-5.6-13.2
		c0-7.9,2.4-17.5,6.4-21.7c2.8-2.8,6.8-4.1,12.2-4.1c7.7,0,17.2,2,21.1,6.1c2.7,2.7,3.9,6.4,3.9,11.6c0,7.5-2.1,18-6.8,22.4
		c-2.7,2.4-6.2,3.5-11.3,3.5C108.8,363.2,100.1,361.6,95.8,358.7z M129.7,375.2l-0.9,7.2l20.1,2.5l9.5-77.7l-20.1-2.5l-0.9,7.5H135
		c-3-5.3-11-12.5-26.2-12.5c-21.1,0-36.7,15.6-39.5,36.9c-0.3,2.1-0.4,4.2-0.4,6.3c0,20.4,13.8,37.1,35.4,39.5
		c1.2,0.1,2.4,0.2,3.6,0.1c9,0,15.8-3.9,19.3-7.3L129.7,375.2L129.7,375.2z M583.6,352.2c-16.1,0-21.4-5.3-21.4-21.4
		c0-16.1,5.3-21.6,21.4-21.6c16.1,0,21.4,5.5,21.4,21.6C605,346.9,599.7,352.2,583.6,352.2z M480.4,352.2
		c-16.1,0-21.4-5.3-21.4-21.4c0-16.1,5.3-21.6,21.4-21.6s21.4,5.5,21.4,21.6C501.8,346.9,496.5,352.2,480.4,352.2L480.4,352.2z
		 M379.9,352.2c-16.1,0-21.4-5.3-21.4-21.4c0-16.1,5.3-21.6,21.4-21.6c16.1,0,21.4,5.5,21.4,21.6C401.3,346.9,396,352.2,379.9,352.2
		z M39.1,265.1L26,369.8l21.3,2.6l12.9-104.7L39.1,265.1z M605.9,362.4v7.6H626v-78.4h-20.1v7.6H603c-3.2-4.3-11.3-9.9-22.2-9.9
		c-23.9,0-40.3,18.2-40.3,41.5c0,23.3,16.4,41.4,40.3,41.4c10.9,0,19-5.6,22.2-9.9L605.9,362.4L605.9,362.4z M379.9,289.3
		c-26.6,0-43.1,18.2-43.1,41.5c0,23.3,16.5,41.4,43.1,41.4s43.1-18.1,43.1-41.4C423,307.5,406.5,289.3,379.9,289.3z M503,362.4v7.6
		h20.1V266h-21.3v33.1h-2.9c-3.2-4.3-10.4-9.9-21.3-9.9c-23.9,0-40.3,18.2-40.3,41.5c0,23.3,16.4,41.4,40.3,41.4
		c10.9,0,19.4-5.6,22.5-9.9C500.1,362.4,503,362.4,503,362.4z"/>
</g>
</svg>
