<svg id="Слой_1" data-name="Слой 1" xmlns="http://www.w3.org/2000/svg" viewBox="0 0 200 39.61"><defs><style>.cls-1{fill:#572179;}</style></defs><title>leboutique_logo</title><path class="cls-1" d="M7.51,3.9A3.7,3.7,0,0,1,8.87,2.17a3.14,3.14,0,0,1,2-.52A6.17,6.17,0,0,1,14.27,2.9a1.1,1.1,0,0,1,.32.6A7.44,7.44,0,0,1,14.71,5a8.84,8.84,0,0,1-.08,1.41A22.49,22.49,0,0,1,12.82,12a35.6,35.6,0,0,1-4.14,6.88l0,.24c-.08.36-.16.77-.28,1.17a47.85,47.85,0,0,0-1,5.64,3.34,3.34,0,0,0,.4,1.69,5.47,5.47,0,0,0,3-1c1.81-1.33,3.22-2.46,3.63-2.46s0,.76-1.25,2.78c-1.85,2.9-5.84,4.91-7.85,4.91s-3.58-1.17-3.58-3.66A18.17,18.17,0,0,1,2,24.84a8,8,0,0,0,.16-1A13.08,13.08,0,0,1,0,25.24c-.16,0,.76-.85,2-1.9,0,0,.08-.08.36-.32L7.51,3.9ZM9.24,16.66h0a29.61,29.61,0,0,0,2.82-5.11A19.53,19.53,0,0,0,13.79,6.2a9.51,9.51,0,0,0,0-1.49.39.39,0,0,0-.72-.2,3.23,3.23,0,0,0-.32.69q-1,2.71-1.82,5.43C10.33,12.6,9.76,14.65,9.24,16.66Z"/><path class="cls-1" d="M31.82,25.32a2.86,2.86,0,0,1-.24,3.18,7.73,7.73,0,0,1-3,2.18A15,15,0,0,1,22.19,32c-4.71,0-7.41-2.06-7.61-6.2a15.51,15.51,0,0,1,4-11.23,12.76,12.76,0,0,1,9.74-4.95c3.39,0,5,1.45,5,4.19s-3.54,6.24-9,8.17c-1.29.44-3.9,1.61-3.94,2.66A4,4,0,0,0,20.83,27a4.06,4.06,0,0,0,3.86,1.85,11.54,11.54,0,0,0,7.13-3.54Zm-11-3.38h0c.68-1.49,1.89-2,3.38-2.82,2.58-1.41,3.3-2.74,3.7-4.14s-.08-2.62-1.53-2.62c-2.17,0-4,2.78-5.15,7.77C21.19,20.13,21,20.81,20.79,21.94Z"/><path class="cls-1" d="M57.06,14.85c4.19.85,6.36,3.46,6.36,6.76v.2a9.42,9.42,0,0,1-4,7.29,16.09,16.09,0,0,1-10.23,3.18,41.14,41.14,0,0,1-6.52-.65,3.32,3.32,0,0,1-2.09-3,6.18,6.18,0,0,1,.12-1.45c1.89-8.13,4.75-19.28,4.75-21.38,0-.6-.08-1.33-.32-1.25a5.66,5.66,0,0,1-1.29.12c-.12,0-.16-.24-.12-.69A2.87,2.87,0,0,1,44,2.9,2.77,2.77,0,0,1,46.27,1a30.74,30.74,0,0,1,7.89-1c.6,0,1.17,0,1.77,0,5.35.28,8.29,2,8.29,6.48-.2,3.75-2.82,6.56-7.17,8.33Zm-4.91,2.46h0a3.91,3.91,0,0,0-1.2,0c-.41,0-.81,0-1.26,0a1,1,0,0,1-.88-.48c-.68,2.77-1.61,6.6-2.05,9.33a10.16,10.16,0,0,0-.08,1.53A6,6,0,0,0,50.58,29a6.5,6.5,0,0,0,5-1.93,6.9,6.9,0,0,0,1.77-4.63v-.2c0-2.9-1.81-4.43-5.24-4.91Zm6.4-10.23h0c0-2.9-2.1-3.82-4.87-3.82a25.7,25.7,0,0,0-2.94.36,3.66,3.66,0,0,1,.4,1.77,8,8,0,0,1-.2,1.77c-.48,2.25-1.09,4.91-1.57,7,.88-.08,2.38-.16,3.22-.33,3.82-.68,5.83-3.26,6-6.44Z"/><path class="cls-1" d="M78.11,9.66c4.39,0,7.37,2.69,7.37,7.17,0,7.57-5.88,15.22-13,15.22-4.43,0-7.37-2.82-7.37-7.49A15.7,15.7,0,0,1,69,14.17a12.33,12.33,0,0,1,9.14-4.51Zm-1.21,3h0C73.32,12.64,71,20.37,71,25c0,2.38.72,4.1,2.66,4.1,3.54,0,5.84-7.65,5.84-12.28C79.48,14.45,78.84,12.64,76.9,12.64Z"/><path class="cls-1" d="M107.67,12a12.2,12.2,0,0,1-.52,3c-1.09,3.94-2.38,7.89-2.38,10.75a3.41,3.41,0,0,0,.44,1.73c1.13-.24,3.94-3.46,4.39-3.46.16,0,.24.12.24.36,0,2.9-4.26,7.33-7.16,7.33-2.25,0-3.57-1.41-3.57-4.31a16,16,0,0,1,.36-3.1C96.35,29.34,93.34,32,90.08,32c-3,0-3.51-2.09-3.51-4.15,0-3.14,2.9-12.2,2.9-15.22a4.58,4.58,0,0,0-.4-2.05A11.6,11.6,0,0,1,93,9.78c1.85,0,2.34,1,2.34,2.21a12.21,12.21,0,0,1-.4,2.46c-1.29,5.63-2.62,10.26-2.62,12.24,0,.52.16,1,.76,1,1.12,0,3.62-2.78,5.84-6.76C101,17.22,102,13.88,102,11.71a3.16,3.16,0,0,0-.28-1.37,11.78,11.78,0,0,1,3.47-.56C106.49,9.86,107.67,10.3,107.67,12Z"/><path class="cls-1" d="M124.68,12a3.24,3.24,0,0,1-3.38,3.22c-.8,0-1.57,0-2.29,0a3.55,3.55,0,0,0-.93.08c-.4,1.93-.89,4.1-1.45,6.24a18.8,18.8,0,0,0-.64,4.31c.07,1.25.6,1.93,1.56,1.93.49,0,1.33-.77,2.06-1.53,1.28-1.37,2-2,2.46-2,.16,0,.2.12.2.36,0,2.9-4.23,7.33-7.12,7.33-3.35,0-4.67-2-4.67-5.24a18,18,0,0,1,.24-2.49c.4-2.37.53-3.06,1.33-6.4a48.47,48.47,0,0,0,1.81-9.86,4.9,4.9,0,0,0-.44-2.22,8.55,8.55,0,0,1,4.34-1.33,1.8,1.8,0,0,1,2,2c0-.12-.2,1.81-1,5.76h2.09a26,26,0,0,0,3.83-.28Z"/><path class="cls-1" d="M132.29,26.24c1.77-1.93,2.66-2.46,2.66-1.65a6.79,6.79,0,0,1-.64,2.17c-1.13,2.61-4.4,5.11-6.49,5.11s-3.42-1.21-3.59-3.7A21.76,21.76,0,0,1,125,21.7c.68-2.41,1-4.79,1.33-6.28a11.4,11.4,0,0,0,.19-2.17,3.43,3.43,0,0,0-.6-2,11.77,11.77,0,0,1,4-.85,2.79,2.79,0,0,1,2,.65,2.29,2.29,0,0,1,.48,2.09c-.12.64-.24,1.29-.45,2-.6,2.25-1.33,4.79-1.57,5.92a27.9,27.9,0,0,0-.6,4.87,3.46,3.46,0,0,0,.44,1.73,5.78,5.78,0,0,0,2-1.41ZM134.23.08h0a15.18,15.18,0,0,0-5.48,1,1.67,1.67,0,0,1,.2.56c0,1.61-.64,3.91-.64,5.07,0,.64.45,1.49,2.13,1.13,2.34-.48,2.3-.44,4.07-3.18a10.43,10.43,0,0,0,1.61-3.06,1.9,1.9,0,0,0,0-.48C136.12.52,135.48.08,134.23.08Z"/><path class="cls-1" d="M158,10.75a17.84,17.84,0,0,0-1.9,4.71C155,20,153.32,27,152.27,32.89a20.39,20.39,0,0,0-.44,3.9,11,11,0,0,0,.2,2,9.55,9.55,0,0,1-3.34.81c-2.1,0-2.58-1-2.58-2.17a10.41,10.41,0,0,1,.23-1.85c.85-4.27,1.54-7.57,2.34-11.31C145.34,29.71,142,32,139.23,32c-3.35,0-4.11-2.94-4.11-5.72,0-7.21,5.55-16.67,12.64-16.67a8.34,8.34,0,0,1,4.35,1.21,3.55,3.55,0,0,1,2.74-1,6.73,6.73,0,0,1,3.18.93Zm-15.79,17h0c2,0,7.09-8.45,8.66-12.68-.12-1.61-1.89-2.38-3.42-2.38-2.9,0-6.57,6.52-6.57,12.64C140.91,26.57,141.15,27.77,142.24,27.77Z"/><path class="cls-1" d="M179.16,12a12.24,12.24,0,0,1-.52,3c-1.09,3.94-2.37,7.89-2.37,10.75a3.47,3.47,0,0,0,.44,1.73c1.13-.24,3.94-3.46,4.39-3.46.16,0,.24.12.24.36,0,2.9-4.27,7.33-7.17,7.33-2.25,0-3.58-1.41-3.58-4.31a16.38,16.38,0,0,1,.36-3.1c-3.09,5.07-6.12,7.77-9.38,7.77-3,0-3.5-2.09-3.5-4.15,0-3.14,2.9-12.2,2.9-15.22a4.55,4.55,0,0,0-.4-2.05,11.61,11.61,0,0,1,3.95-.84c1.85,0,2.33,1,2.33,2.21a11.86,11.86,0,0,1-.4,2.46c-1.29,5.63-2.62,10.26-2.62,12.24,0,.52.16,1,.76,1,1.13,0,3.63-2.78,5.84-6.76,2.05-3.74,3.11-7.09,3.11-9.26a3.11,3.11,0,0,0-.29-1.37,11.83,11.83,0,0,1,3.47-.56C178,9.86,179.16,10.3,179.16,12Z"/><path class="cls-1" d="M198.51,25.32a2.88,2.88,0,0,1-.24,3.18,7.78,7.78,0,0,1-3,2.18A15,15,0,0,1,188.89,32c-4.71,0-7.41-2.06-7.6-6.2a15.46,15.46,0,0,1,4-11.23A12.76,12.76,0,0,1,195,9.66c3.38,0,5,1.45,5,4.19s-3.55,6.24-9,8.17c-1.29.44-3.9,1.61-3.95,2.66a4,4,0,0,0,.44,2.33,4.07,4.07,0,0,0,3.87,1.85,11.56,11.56,0,0,0,7.13-3.54Zm-11-3.38h0c.68-1.49,1.89-2,3.38-2.82,2.58-1.41,3.3-2.74,3.71-4.14s-.08-2.62-1.53-2.62c-2.18,0-4,2.78-5.15,7.77C187.88,20.13,187.72,20.81,187.48,21.94Z"/></svg>