<?xml version="1.0" encoding="utf-8"?>
<!-- Generator: Adobe Illustrator 19.2.1, SVG Export Plug-In . SVG Version: 6.00 Build 0)  -->
<svg version="1.1" id="layer" xmlns="http://www.w3.org/2000/svg" xmlns:xlink="http://www.w3.org/1999/xlink" x="0px" y="0px"
	 viewBox="0 0 652 652" style="enable-background:new 0 0 652 652;" xml:space="preserve">
<style type="text/css">
	.st0{fill:#43B02A;}
	.st1{filter:url(#Adobe_OpacityMaskFilter);}
	.st2{fill:#FFFFFF;}
	.st3{mask:url(#B_1_);}
	.st4{fill:#FF671F;}
</style>
<g>
	<g>
		<path id="A_1_" class="st0" d="M95.1,250.7l457,0c15.9,0,31.3,5.4,43.8,15.3c16.2,12.8,26.2,33.1,26.1,53.8
			c0.3,17.1-6.1,34.1-17.4,46.8c-13,14.9-32.6,23.6-52.3,23.6l-442.7,0c-12.4-0.1-25.2,0.8-37.2-2.9c-22.6-6.4-41.2-25.1-47.5-47.8
			c-4.9-16.3-3.1-34.3,4.3-49.6c9.6-19.9,29.1-34.6,50.9-38.3C85,250.9,90.1,250.7,95.1,250.7L95.1,250.7z"/>
	</g>
	<defs>
		<filter id="Adobe_OpacityMaskFilter" filterUnits="userSpaceOnUse" x="55.2" y="276.6" width="533.6" height="89.4">
			<feColorMatrix  type="matrix" values="1 0 0 0 0  0 1 0 0 0  0 0 1 0 0  0 0 0 1 0"/>
		</filter>
	</defs>
	<mask maskUnits="userSpaceOnUse" x="55.2" y="276.6" width="533.6" height="89.4" id="B_1_">
		<g class="st1">
			<path id="A_2_" class="st2" d="M95.1,250.7l457,0c15.9,0,31.3,5.4,43.8,15.3c16.2,12.8,26.2,33.1,26.1,53.8
				c0.3,17.1-6.1,34.1-17.4,46.8c-13,14.9-32.6,23.6-52.3,23.6l-442.7,0c-12.4-0.1-25.2,0.8-37.2-2.9c-22.6-6.4-41.2-25.1-47.5-47.8
				c-4.9-16.3-3.1-34.3,4.3-49.6c9.6-19.9,29.1-34.6,50.9-38.3C85,250.9,90.1,250.7,95.1,250.7L95.1,250.7z"/>
		</g>
	</mask>
	<g class="st3">
		<path class="st4" d="M539.8,283.7c17.7-5.2,38.1,4.5,45.5,21.4c5.4,11.4,4.6,25.4-2.1,36.2c-7.1,12.1-21.2,19.7-35.3,18.7
			c-18.2-0.4-34.4-15.6-36.6-33.6C508.4,307.7,521.4,288.3,539.8,283.7L539.8,283.7z"/>
		<path class="st2" d="M92.7,277.2c17-3,35.3,5.4,44.4,20.1c4.4,7.2-2,17.8-10.5,16.6c-4.8,0.6-8.1-3.1-10.7-6.6
			c-6.2-7.7-18.1-9.8-26.6-4.8c-8.6,4.6-13.5,16-10,25.3c2.7,9,12.1,15.7,21.5,14.8c7.6,0.3,13.4-5.2,18.2-10.4
			c6.3-6.1,17.9-0.9,18.4,7.6c0.9,7.5-5.8,12.8-10.9,17.1c-16.8,13.2-42.9,11.5-57.9-3.7c-15.3-14.4-17.9-40-5.6-57.1
			C69.8,286,80.8,279.1,92.7,277.2L92.7,277.2z M178.4,277.4c22.8-4.7,47.2,11.9,51.4,34.8c5.8,23.7-12,49.5-35.9,53
			c-22.4,4.5-46.2-11.4-51-33.7C136.3,307.6,154,281.1,178.4,277.4L178.4,277.4z M182.6,300.1c-10.5,1.5-18.8,11.8-17.9,22.5
			c0.4,10.9,10.5,20.6,21.5,20c12.1,0.6,22.6-11.3,21.2-23.2C206.8,307.4,194.4,297.7,182.6,300.1z M237.8,287.9
			c-0.4-8.8,11.3-14.7,18-9l27.4,27.1l26.2-26.2c3.2-3.2,8.5-4.3,12.7-2.2c4.4,2,7.2,6.9,6.9,11.6l0,65.1
			c0.1,6.7-6.5,12.5-13.2,11.4c-5.6-0.6-10.1-5.8-10-11.4v-38.2L291,330.9c-3.8,3.7-10.1,4.2-14.4,0.9c-5.7-4.7-10.4-10.5-15.9-15.5
			l-0.1,38.7c0,6.7-7,12.2-13.5,10.7c-5.3-0.9-9.8-6-9.3-11.4L237.8,287.9L237.8,287.9z M338.6,288.3c-0.2-6.5,5.8-12.1,12.2-11.7
			l46.2,0c4.2,0,8.3,2.6,10.2,6.4c3.7,6.5-1.2,16.2-8.9,16.4l-36.6,0.1v14.1l30.9,0c7.3-0.3,13.8,7.2,11.7,14.4
			c-1.1,5.3-6.4,9.1-11.8,8.9c-10.3,0.1-20.6,0-30.8,0l-0.1,18.3c-0.4,7-8.2,12.3-14.8,10c-3.3-0.8-5.4-3.6-7.4-6.1
			c-1.4-6.4-0.7-13-0.8-19.5L338.6,288.3L338.6,288.3z M413.3,289.4c-1.2-7.6,6.9-14.6,14.2-12.4c5.1,1.5,8,6.2,11.7,9.5l16.7,16.5
			l23.8-23.6c4.5-4.1,11.9-3.5,15.9,1c4.1,4.3,4,11.7-0.3,15.8l-27.9,28.1l0,30c0.3,5.4-4,10.3-9.2,11.3
			c-6.8,1.6-14.1-4.4-13.6-11.4l0-29.9l-22.8-23C418.2,297.8,413.5,294.6,413.3,289.4L413.3,289.4z"/>
	</g>
</g>
</svg>
